<?xml version="1.0" encoding="UTF-8"?>
<svg width="257px" height="296px" viewBox="0 0 257 296" version="1.1" xmlns="http://www.w3.org/2000/svg" xmlns:xlink="http://www.w3.org/1999/xlink">
    <!-- Generator: Sketch 45.2 (43514) - http://www.bohemiancoding.com/sketch -->
    <title>Group 2</title>
    <desc>Created with Sketch.</desc>
    <defs>
        <linearGradient x1="0.559562505%" y1="8.94930517%" x2="102.199972%" y2="8.94930512%" id="linearGradient-1">
            <stop stop-color="#474747" offset="0%"></stop>
            <stop stop-color="#252525" offset="100%"></stop>
        </linearGradient>
        <linearGradient x1="0.559562505%" y1="8.94930517%" x2="102.199972%" y2="8.94930512%" id="linearGradient-2">
            <stop stop-color="#474747" offset="0%"></stop>
            <stop stop-color="#262626" offset="100%"></stop>
        </linearGradient>
        <linearGradient x1="-5.5432778%" y1="7.98633695%" x2="103.834559%" y2="7.98633695%" id="linearGradient-3">
            <stop stop-color="#737373" offset="0%"></stop>
            <stop stop-color="#CACACA" offset="100%"></stop>
        </linearGradient>
        <linearGradient x1="50%" y1="0%" x2="50%" y2="100%" id="linearGradient-4">
            <stop stop-color="#FEFEFF" stop-opacity="0.771540987" offset="0%"></stop>
            <stop stop-color="#FDFBFF" stop-opacity="0.771540987" offset="100%"></stop>
        </linearGradient>
        <linearGradient x1="50%" y1="0%" x2="50%" y2="100%" id="linearGradient-5">
            <stop stop-color="#070707" stop-opacity="0.771540987" offset="0%"></stop>
            <stop stop-color="#FDFBFF" stop-opacity="0.771540987" offset="100%"></stop>
        </linearGradient>
    </defs>
    <g id="Page-1" stroke="none" stroke-width="1" fill="none" fill-rule="evenodd">
        <g id="Artboard" transform="translate(-64.000000, -79.000000)">
            <g id="Group-2" transform="translate(65.000000, 80.000000)">
                <g id="Bottom-Curve" transform="translate(0.000000, 159.200000)">
                    <path d="M255.135489,37.6 C254.534106,46.1848112 250.610819,53.5635245 243.365628,59.7361399 L159.109077,125.737105 C150.114454,132.071781 140.550476,135.23912 130.417143,135.23912 C120.283809,135.23912 111.749935,133.402637 104.815518,129.729672 L12.8932369,58.9043072 C4.67395322,51.8935714 0.376207599,44.7921356 -1.32047151e-14,37.6 L255.135489,37.6 Z" id="Combined-Shape" fill="url(#linearGradient-1)"></path>
                    <rect id="Rectangle-6" fill="url(#linearGradient-2)" x="0" y="0" width="255.135489" height="38.4"></rect>
                </g>
                <g id="Middle-Curve" transform="translate(0.000000, 129.600000)" fill="url(#linearGradient-3)">
                    <path d="M255.135489,38.4 C254.534106,46.9848112 250.610819,54.3635245 243.365628,60.5361399 L159.109077,126.537105 C150.114454,132.871781 140.550476,136.03912 130.417143,136.03912 C120.283809,136.03912 111.749935,134.202637 104.815518,130.529672 L12.8932369,59.7043072 C4.67395322,52.6935714 0.376207599,45.5921356 -1.32047151e-14,38.4 L255.135489,38.4 Z" id="Combined-Shape"></path>
                    <rect id="Rectangle-6" x="0" y="0" width="255.135489" height="38.4"></rect>
                </g>
                <g id="Top-Curve" transform="translate(0.000000, 95.200000)" fill="#F0F0F0">
                    <path d="M255.135489,38.4 C254.534106,46.9848112 250.610819,54.3635245 243.365628,60.5361399 L159.109077,126.537105 C150.114454,132.871781 140.550476,136.03912 130.417143,136.03912 C120.283809,136.03912 111.749935,134.202637 104.815518,130.529672 L12.8932369,59.7043072 C4.67395322,52.6935714 0.376207599,45.5921356 -1.06928355e-14,38.4 L255.135489,38.4 Z" id="Combined-Shape"></path>
                    <rect id="Rectangle-6" x="0" y="0" width="255.135489" height="38.4"></rect>
                </g>
                <g id="Top-Pattern">
                    <path d="M30.9551405,135.2 L-2.21524811e-06,135.2 C0.376207599,142.392136 4.67395322,149.493571 12.8932369,156.504307 L104.815518,227.329672 C111.749935,231.002637 120.283809,232.83912 130.417143,232.83912 C140.550476,232.83912 150.114454,229.671781 159.109077,223.337105 L243.365628,157.33614 C250.610819,151.163525 254.534106,143.784811 255.135489,135.2 L226.715428,135.2 L226.715428,135.2 L255.135489,135.2 L255.135489,100.35809 C255.20797,99.4649246 255.244211,98.5586012 255.244211,97.6391198 C255.244211,89.2965655 250.685057,81.2794923 241.56675,73.5879 L157.644211,8.83911978 C150.710877,3.50578645 140.977544,0.572453113 128.444211,0.03911978 C117.640927,-0.420594426 106.734862,3.17142334 95.7260147,10.8151731 L20.0356915,69.7783531 C7.72575288,78.2329922 1.08544178,87.2402078 0.114758161,96.7999999 L0,96.8 L0,135.2 L30.9551405,135.2 L30.9551405,135.2 Z" id="Combined-Shape" fill=""></path>
                    <path d="M248.962273,116.326087 C253.150231,110.857368 255.244211,104.628379 255.244211,97.6391198 C255.244211,89.2965655 250.685057,81.2794923 241.56675,73.5879 L157.644211,8.83911978 C150.710877,3.50578645 140.977544,0.572453113 128.444211,0.03911978 C117.640927,-0.420594426 106.734862,3.17142334 95.7260147,10.8151731 L20.0356915,69.7783531 C7.36618776,78.4799466 0.702360883,87.7668688 0.0442108201,97.6391198 C-0.368204227,103.825345 2.10475195,109.944836 7.46307935,115.997593 C10.6406203,112.225751 14.831491,108.552671 20.0356915,104.978353 L95.7260147,46.0151731 C106.734862,38.3714233 117.640927,34.7794056 128.444211,35.2391198 C140.977544,35.7724531 150.710877,38.7057864 157.644211,44.0391198 L241.56675,108.7879 C244.505486,111.266821 246.970661,113.77955 248.962273,116.326087 Z" id="Combined-Shape" fill-opacity="0.646314538" fill="#FFFFFF"></path>
                    <path d="M30.9551405,135.2 L30.9551405,135.2 L0,135.2 L0,96.8 L0.114749993,96.8 C1.08544178,87.2402078 7.72575288,78.2329922 20.0356915,69.7783531 L95.7260147,10.8151731 C106.734862,3.17142334 117.640927,-0.420594426 128.444211,0.03911978 C140.977544,0.572453113 150.710877,3.50578645 157.644211,8.83911978 L241.56675,73.5879 C250.685057,81.2794923 255.244211,89.2965655 255.244211,97.6391198 C255.244211,98.5586012 255.20797,99.4649246 255.135489,100.35809 L255.135489,135.2 L226.715428,135.2 L226.715428,135.2 L255.135489,135.2 C254.534106,143.784811 250.610819,151.163525 243.365628,157.33614 L159.109077,223.337105 C150.114454,229.671781 140.550476,232.83912 130.417143,232.83912 C120.283809,232.83912 111.749935,231.002637 104.815518,227.329672 L12.8932369,156.504307 C4.67395322,149.493571 0.376207599,142.392136 -1.15185639e-14,135.2 L30.9551405,135.2 Z M128.444211,0.03911978 C140.977544,0.572453113 150.710877,3.50578645 157.644211,8.83911978 L241.56675,73.5879 C250.685057,81.2794923 255.244211,89.2965655 255.244211,97.6391198 C255.244211,107.23912 251.293706,115.404793 243.392696,122.13614 L159.136145,188.137105 C150.141522,194.471781 140.577544,197.63912 130.444211,197.63912 C120.310877,197.63912 111.777003,195.802637 104.842587,192.129672 L12.9203051,121.304307 C3.80290891,113.527516 -0.489122513,105.63912 0.0442108201,97.6391198 C0.702360883,87.7668688 7.36618776,78.4799466 20.0356915,69.7783531 L95.7260147,10.8151731 C106.734862,3.17142334 117.640927,-0.420594426 128.444211,0.03911978 Z" id="Combined-Shape" fill-opacity="0.297526042" fill="#FFFFFF"></path>
                </g>
                <path d="" id="Combined-Shape" fill="url(#linearGradient-4)"></path>
                <path d="M128.444211,35.2391198 C140.977544,35.7724531 150.710877,38.7057864 157.644211,44.0391198 L241.56675,108.7879 C250.685057,116.479492 255.244211,124.496566 255.244211,132.83912 C255.244211,142.43912 251.293706,150.604793 243.392696,157.33614 L159.136145,223.337105 C150.141522,229.671781 140.577544,232.83912 130.444211,232.83912 C120.310877,232.83912 111.777003,231.002637 104.842587,227.329672 L12.9203051,156.504307 C3.80290891,148.727516 -0.489122513,140.83912 0.0442108201,132.83912 C0.702360883,122.966869 7.36618776,113.679947 20.0356915,104.978353 L95.7260147,46.0151731 C106.734862,38.3714233 117.640927,34.7794056 128.444211,35.2391198 Z" id="Top" fill="url(#linearGradient-5)"></path>
                <path d="M128.444211,0.03911978 C140.977544,0.572453113 150.710877,3.50578645 157.644211,8.83911978 L241.56675,73.5879 C250.685057,81.2794923 255.244211,89.2965655 255.244211,97.6391198 C255.244211,107.23912 251.293706,115.404793 243.392696,122.13614 L159.136145,188.137105 C150.141522,194.471781 140.577544,197.63912 130.444211,197.63912 C120.310877,197.63912 111.777003,195.802637 104.842587,192.129672 L12.9203051,121.304307 C3.80290891,113.527516 -0.489122513,105.63912 0.0442108201,97.6391198 C0.702360883,87.7668688 7.36618776,78.4799466 20.0356915,69.7783531 L95.7260147,10.8151731 C106.734862,3.17142334 117.640927,-0.420594426 128.444211,0.03911978 Z" id="Top" stroke="#DADADA" stroke-width="0.5" fill-opacity="0.646314538" fill="#FFFFFF"></path>
            </g>
        </g>
    </g>
</svg>